<svg data-v-0f0f22e7="" width="25" height="24" viewbox="0 0 25 24" fill="none" xmlns="http://www.w3.org/2000/svg"><path data-v-0f0f22e7="" fill-rule="evenodd" clip-rule="evenodd" d="M11.4689 2.35968C11.8738 2.12404 12.3329 2 12.8003 2C13.2677 2 13.7269 2.12406 14.1318 2.35972L14.1336 2.36075L20.467 6.01534C20.872 6.25144 21.2083 6.59093 21.4424 6.99974C21.6764 7.40855 21.7998 7.87232 21.8003 8.34452V15.6546C21.7998 16.1268 21.6764 16.5914 21.4424 17.0003C21.2083 17.4091 20.872 17.7486 20.467 17.9847L20.4637 17.9866L14.1336 21.6392L14.1319 21.6402C13.727 21.8759 13.2677 22 12.8003 22C12.3329 22 11.8736 21.8759 11.4687 21.6402L11.467 21.6392L5.13687 17.9866L5.13356 17.9847C4.7286 17.7486 4.39224 17.4091 4.15823 17.0003C3.92421 16.5914 3.80077 16.1277 3.80029 15.6555L3.80029 8.3454C3.80077 7.87321 3.92421 7.40855 4.15823 6.99974C4.39224 6.59093 4.7286 6.25144 5.13356 6.01535L5.13687 6.01342L11.4689 2.35968ZM12.8003 3.73077C12.6331 3.73077 12.4688 3.77522 12.324 3.85964L12.3207 3.86157L5.99055 7.51424L5.98917 7.51504C5.84512 7.59935 5.72546 7.72032 5.64213 7.86589C5.55859 8.01183 5.5145 8.17736 5.51426 8.34592V15.6541C5.5145 15.8226 5.55859 15.9882 5.64213 16.1341C5.72547 16.2797 5.84515 16.4007 5.98923 16.485L5.99055 16.4858L12.324 20.1404C12.4688 20.2248 12.6331 20.2692 12.8003 20.2692C12.9675 20.2692 13.1318 20.2248 13.2766 20.1404L13.2799 20.1384L19.61 16.4858L19.6114 16.485C19.7554 16.4007 19.8751 16.2797 19.9585 16.1341C20.0421 15.9881 20.0862 15.8224 20.0863 15.6537V8.34629C20.0862 8.17761 20.0421 8.01194 19.9585 7.86589C19.8751 7.72032 19.7555 7.59936 19.6114 7.51505L19.61 7.51424L13.2766 3.85965C13.1318 3.77522 12.9675 3.73077 12.8003 3.73077Z" fill="white"></path><path data-v-0f0f22e7="" fill-rule="evenodd" clip-rule="evenodd" d="M4.15851 6.96213C4.3955 6.54843 4.91974 6.40705 5.32943 6.64637L12.799 11.0096L20.2687 6.64637C20.6783 6.40705 21.2026 6.54843 21.4396 6.96213C21.6766 7.37584 21.5366 7.90522 21.1269 8.14454L13.2282 12.7585C12.9627 12.9135 12.6354 12.9135 12.3699 12.7585L4.47121 8.14454C4.06152 7.90522 3.92152 7.37584 4.15851 6.96213Z" fill="white"></path><path data-v-0f0f22e7="" fill-rule="evenodd" clip-rule="evenodd" d="M12.7971 11.1349C13.2704 11.1333 13.6554 11.5193 13.6571 11.9973L13.6858 20.2894C13.6875 20.7673 13.3051 21.1561 12.8319 21.1578C12.3586 21.1594 11.9735 20.7733 11.9719 20.2954L11.9431 12.0033C11.9415 11.5254 12.3238 11.1366 12.7971 11.1349Z" fill="white"></path></svg>