<svg xmlns="http://www.w3.org/2000/svg" width="36" height="36" viewBox="0 0 36 36" fill="none">
<path d="M18 36C27.9411 36 36 27.9411 36 18C36 8.05887 27.9411 0 18 0C8.05887 0 0 8.05887 0 18C0 27.9411 8.05887 36 18 36Z" fill="#F0B90B"/>
<path d="M11.5879 9.71468L17.9284 6.02393L24.2689 9.71468L21.9378 11.0781L17.9284 8.75085L13.9189 11.0781L11.5879 9.71468ZM24.2689 14.3693L21.9378 13.0058L17.9284 15.3331L13.9189 13.0058L11.5879 14.3693V17.0962L15.5973 19.4235V24.078L17.9284 25.4415L20.2595 24.078V19.4235L24.2689 17.0962V14.3693ZM24.2689 21.7507V19.0238L21.9378 20.3873V23.1142L24.2689 21.7507ZM25.924 22.7145L21.9145 25.0418V27.7688L28.2551 24.078V16.6965L25.924 18.06V22.7145ZM23.5929 12.042L25.924 13.4054V16.1324L28.2551 14.7689V12.042L25.924 10.6785L23.5929 12.042ZM15.5973 26.0292V28.7561L17.9284 30.1196L20.2595 28.7561V26.0292L17.9284 27.3926L15.5973 26.0292ZM11.5879 21.7507L13.9189 23.1142V20.3873L11.5879 19.0238V21.7507ZM15.5973 12.042L17.9284 13.4054L20.2595 12.042L17.9284 10.6785L15.5973 12.042ZM9.93276 13.4054L12.2638 12.042L9.93276 10.6785L7.60168 12.042V14.7689L9.93276 16.1324V13.4054ZM9.93276 18.06L7.60168 16.6965V24.078L13.9422 27.7688V25.0418L9.93276 22.7145V18.06Z" fill="white"/>
</svg>